<svg id="cart" xmlns="http://www.w3.org/2000/svg" viewBox="0 0 18.02 14.52"><defs><style>.cls-1{fill:#fff;}</style></defs><path class="cls-1" d="M.64,0H3.52A1.08,1.08,0,0,1,4.6,1.08v0A.64.64,0,0,1,4,1.71H.64A.64.64,0,0,1,0,1.08V.64A.64.64,0,0,1,.64,0Z"/><rect class="cls-1" x="5.62" y="11.32" width="11.01" height="1.71" rx="0.64"/><polygon class="cls-1" points="5.59 12.5 2.8 0.86 4.58 0.86 7.26 12.1 5.59 12.5"/><circle class="cls-1" cx="16.08" cy="13.35" r="1.17"/><circle class="cls-1" cx="5.62" cy="13.35" r="1.17"/><path class="cls-1" d="M22.92,18.57H13.53l-2.59-8.12h13.5a.56.56,0,0,1,.56.67l-1.25,6.76A.84.84,0,0,1,22.92,18.57Z" transform="translate(-6.99 -8.74)"/></svg>