<svg id="download" xmlns="http://www.w3.org/2000/svg" viewBox="0 0 18.79 15.36"><defs><style>.cls-1{fill:#fff;}</style></defs><rect class="cls-1" x="7.11" width="4.56" height="8.64" rx="0.81"/><path class="cls-1" d="M24.93,18.73H18.2l-1.66,1.75a.74.74,0,0,1-1.08,0L13.8,18.73H7.07a.47.47,0,0,0-.46.47v4a.47.47,0,0,0,.46.46H24.93a.47.47,0,0,0,.46-.46v-4A.47.47,0,0,0,24.93,18.73ZM21.52,23a.56.56,0,1,1,.56-.55A.55.55,0,0,1,21.52,23Zm1.85,0a.56.56,0,1,1,.56-.55A.56.56,0,0,1,23.37,23Z" transform="translate(-6.61 -8.32)"/><path class="cls-1" d="M20.87,15.53a.75.75,0,0,0-.54-1.27H11.67a.75.75,0,0,0-.54,1.27l2.67,2.81h4.4Z" transform="translate(-6.61 -8.32)"/><path class="cls-1" d="M16.54,20.08l1.66-1.74H13.8l1.66,1.74A.74.74,0,0,0,16.54,20.08Z" transform="translate(-6.61 -8.32)"/></svg>