<svg id="twitter-logo" xmlns="http://www.w3.org/2000/svg" viewBox="0 0 18.79 15.7"><defs><style>.cls-1{fill:#fefefe;}</style></defs><path class="cls-1" d="M8.67,17.68H9.8a.19.19,0,0,1,.15-.08s.05,0,.05,0,0,0-.05,0a.22.22,0,0,1-.15-.08h0c-.05-.07-.16,0-.21-.1A4.1,4.1,0,0,1,8,16.25c-.06-.06-.14-.11-.15-.2s0-.16-.11-.21-.13-.21-.2-.31,0-.15-.1-.2h0c-.07-.05,0-.15-.1-.21s-.08-.2-.11-.3,0-.3-.1-.41,0-.34,0-.51.07-.19.21-.11.15,0,.2.1h.1c.05.06.16,0,.21.1H8c.08.09.23,0,.31.1h.1a.27.27,0,0,0,.27,0c.09,0,.1-.07,0-.14a3.75,3.75,0,0,1-.82-.82c-.07,0,0-.16-.11-.21s-.12-.21-.2-.31,0-.15-.1-.2h0c-.07-.05,0-.16-.1-.21v-.2c-.06-.05,0-.15-.1-.21a5.81,5.81,0,0,1-.11-1.25c0-.25.15-.45.12-.69.06-.06,0-.16.09-.21v-.2s0-.1.08-.14.06-.13.12-.17.16-.22.3-.06c.33.33.66.67,1,1a10,10,0,0,0,1.51,1.14,12.66,12.66,0,0,0,1.29.74l.41.16c.06.07.16,0,.21.1h0c.05.07.15,0,.21.1s.25.14.41.11.11,0,.17.06l.07,0a.38.38,0,0,0,.21.07.22.22,0,0,1,.16.05h.2c.06.06.16,0,.21.1H14c.09.09.23,0,.31.1h.21c.15.12.36,0,.51.1h.51c.16,0,.21-.05.21-.2,0-.45,0-.89,0-1.34.07-.06,0-.15.05-.23a.23.23,0,0,1,0-.18v-.1c.07-.05,0-.15.1-.2h0c.07-.05,0-.16.11-.21h0c.07,0,0-.15.1-.2h0c.07-.05,0-.16.1-.21A4.2,4.2,0,0,1,18,8.49a.86.86,0,0,1,.17,0c.05-.07.15,0,.21-.1h.2c.08-.09.22,0,.31-.1a2.59,2.59,0,0,1,1-.11c.22,0,.41.17.64.11.05.07.15,0,.21.1h.1c.05.07.15,0,.2.1h.1c.06.07.16,0,.21.1a2.84,2.84,0,0,1,.91.66.43.43,0,0,0,.42.16c.09-.09.23,0,.31-.1h.1c.06-.07.16,0,.21-.1h.1c0-.07.16,0,.21-.1s.25-.14.41-.11.15,0,.2-.1l.41-.2c.24-.06.27,0,.21.2l-.1.21c-.08.05,0,.15-.11.2a3.45,3.45,0,0,1-1,1.13c-.1.13,0,.15.09.15s.16,0,.22-.05h.1a.22.22,0,0,1,.17,0c.08,0,.17,0,.24-.05h.1c.05-.07.15,0,.21-.1h.1c.05-.07.15,0,.2-.11h.1c.11,0,.23-.1.21.11a6.44,6.44,0,0,1-1.29,1.37.79.79,0,0,0-.46.81,12,12,0,0,1-.11,1.58c0,.17-.11.35-.09.54s0,.23-.1.31v.2c-.07.07-.05.15-.05.22a.43.43,0,0,1,0,.11.2.2,0,0,0-.08.22.19.19,0,0,1-.06.17h0c-.07.05,0,.16-.1.21v.2c-.07.05,0,.16-.1.21h0c-.07.05,0,.15-.1.2h0c-.07.05,0,.16-.1.21V17c-.07.05,0,.15-.1.21h0c-.07.06,0,.16-.1.21h0c-.07.05,0,.15-.1.21l-.11.2c-.07.05,0,.15-.1.21h0c-.07.05,0,.15-.1.2h0c-.07.05,0,.16-.1.2-.32.44-.6.9-.93,1.32A14.1,14.1,0,0,1,19.83,21a9.17,9.17,0,0,1-1.89,1.38c-.35.19-.72.32-1.06.51-.05.07-.16,0-.21.1h0c-.05.07-.15,0-.21.1s-.25.14-.4.1a.23.23,0,0,1-.18.05c-.08,0-.17,0-.23.06h0c-.06.06-.16,0-.21.1h-.1c-.05.07-.16,0-.21.1h-.2c-.12.11-.3,0-.41.1-.54,0-1.08.11-1.62.13-.24,0-.51.14-.74.06-.47-.17-1,0-1.44-.18a1.05,1.05,0,0,0-.31,0c-.06-.07-.15,0-.23-.05a.23.23,0,0,1-.18,0H9.8c-.05-.07-.16,0-.21-.1h-.1c-.06-.07-.15-.05-.23-.05a.38.38,0,0,1-.1,0c-.06-.12-.21,0-.29-.13h-.1c0-.07-.15,0-.2-.1h-.1c-.06-.07-.16,0-.21-.1h0c0-.07-.16,0-.21-.1l-.51-.21c0-.07-.15,0-.2-.1a3.63,3.63,0,0,1-.72-.41c0-.18.09-.15.18-.15.36,0,.72,0,1.09,0A.55.55,0,0,0,8.22,22a1.62,1.62,0,0,1,.31,0c.11,0,.24,0,.35-.05H9a.22.22,0,0,1,.17-.05.2.2,0,0,0,.22-.08.22.22,0,0,1,.11,0c.07,0,.15,0,.22,0a.57.57,0,0,1,.4-.11c.05-.06.15,0,.18-.12s.1,0,.14-.08a2.7,2.7,0,0,0,.81-.37c.25-.13.48-.3.72-.45s-.06-.14-.1-.2h-.41c-.06-.07-.16,0-.23-.08s-.21,0-.28-.12a2.65,2.65,0,0,1-.82-.37,3.69,3.69,0,0,1-.77-.65,4,4,0,0,1-.47-.62c-.07-.05,0-.16-.1-.21h0c-.07-.05,0-.15-.1-.2h0c-.07-.05,0-.16-.1-.21h0C8.52,17.78,8.47,17.67,8.67,17.68Z" transform="translate(-6.61 -8.15)"/></svg>